<?xml version="1.0" encoding="UTF-8"?>
<svg id="Capa_1" data-name="Capa 1" xmlns="http://www.w3.org/2000/svg" viewBox="0 0 725.15 191.98">
  <defs>
    <style>
      .cls-1 {
        fill: #cabe75;
        stroke: #cabe75;
        stroke-miterlimit: 10;
        stroke-width: 4px;
      }
    </style>
  </defs>
  <path class="cls-1" d="M390.7,30.14c-5.25-6.35-14.89-17.65-21.8-22.1-4.69-3.02-13.88,4.68-17.87,7.55-20.64,14.88-37.13,35.62-56.73,51.27-6.61,5.27-11.32,6.5-18.1,10.4-10.71,6.14-25.3,28.4-36.58,29.41-8.37.75-13.47-5.48-19.52-10.55-14.39-12.08-20.31-22.09-39.63-8.84-12.5,8.57-24.12,21.75-35.75,31.75-37.4,32.14-82.73,62.72-133.14,67.86-1.3.13-8.21.78-8.66.44-1.25-.91-.56-4.23-.71-5.69,38.66-1.75,74.5-19.23,105.54-41.08,23.42-16.48,41.7-36.33,63.61-53.39,15.94-12.41,25.78-16.97,43.45-3.74,4.41,3.31,18.82,18.27,22.52,18.41,7.33.29,18.27-14.45,23.24-19.21,9.86-9.44,20.82-12.91,31.16-21.34,16.5-13.48,31.01-30.29,47.63-43.87,6.41-5.23,19.46-16.62,27.96-15.31,10,1.55,24.03,21.15,32.46,27.6,6.53,5,11.49,5.51,18.45,8.55,10.67,4.67,20.22,17.29,28.34,25.66,6.67,6.87,19.32,22.59,27.4,26.23,1.33,2.34,4.77,4.75,7.64,5.49,23.68,6.13,25.6-25.91,51.62-18.62,11.57,3.24,35.71,32.14,46.1,41.65,33,30.23,72.47,52.15,116.31,62.19l26.1,2.4c3.81,5.24-.71,5.4-5.14,5.13-52.81-3.2-103.63-30.59-141.77-65.97-10.82-10.03-20.52-22.95-31.46-32.29-17.74-15.13-26.2-7.71-40.16,6.37-37.62,37.94-90.82,101.72-151.06,92.6-1.64-.25-3.88-1.11-3.34-3.2.86-3.31,4.9-1.26,7.01-1.22,44.08.74,76.82-26.4,107.33-54.75,5.78-5.37,22.54-20.71,26.15-26.34,2.91-4.55-4.23-2.55-7.36-3.02-6.36-.96-10.64-3.66-15.46-7.79-8.79-7.53-17.1-20.01-26.24-25.88-2.13-5.23-17.07-20.39-22.5-22.87-4.42-2.02-8.81-2.02-13.51-4.49-5.2-2.73-8.2-6.99-13.49-9.39Z"/>
  <path class="cls-1" d="M301.45,172.71c.22-.56,7.98-6.12,9.39-7.48,14.15-13.64,13.71-22.8,20.47-39.53,4.02-9.97,12.53-21.89,20.78-28.72,1.58-1.3,8.27-7.08,10.1-5.26,2.94,2.92-9.57,11.24-11.63,13.49-12.85,13.99-11.7,30.65-20.77,45.98-3.92,6.62-17.6,21.52-24.63,24.13-2.09.78-4.78.01-3.72-2.61Z"/>
</svg>