<?xml version="1.0" encoding="UTF-8"?>
<svg id="Capa_1" data-name="Capa 1" xmlns="http://www.w3.org/2000/svg" viewBox="0 0 197.41 157.62">
  <defs>
    <style>
      .cls-1 {
        fill: #c9bf77;
      }

      .cls-2 {
        fill: #cac07a;
      }
    </style>
  </defs>
  <path class="cls-1" d="M130.27,40.47c-1.94-.56-3.62-2.15-5.11-3.95-3.28-3.96-9.18-15.12-12.44-17.21-1.08-.69-2.3-.8-3.41-1.54-3.65-2.44-5.25-6.75-8.08-10.09-2.3-2.72-3.01-.96-5.21,1.25-5.68,5.69-10.32,14.67-16.08,19.82-1.32,1.18-2.92,1.92-4.22,3.16-4.52,4.31-7.66,14.83-14.04,9.22-1.99-1.75-5.17-7.16-7.23-7.6-4.06-.87-9.44,8.5-12.43,12.05-10.16,12.03-23.93,25.46-37.38,26.93-3.8.41-4.91.22-4.59-5.99,12.25.07,23.97-8.76,33.48-19.35,4.67-5.19,9.2-12.08,14.11-16.65s7.84-4.39,12.39.46c1.4,1.49,4.1,6.39,5.75,5.54,1.38-.71,4.04-5.76,5.47-7.4,2.54-2.91,5.73-4.69,8.42-7.73C84.03,16.48,93.84.83,98.87.04c4.71-.74,8.14,9.21,11.94,11.83,1.23.85,2.61,1.19,3.94,2.16,4.85,3.54,8.77,12.31,12.96,17.39,1.19,1.44,3.11,3.56,4.64,3.51,3.92-.13,5.28-8.15,11.17-7.47,4.95.57,12.24,13.74,16.29,18.58,7.43,8.87,19.83,18.44,29.39,20.42,1.89.39,6.57-.2,7.61,1.93,2.09,4.26-1.8,4.79-3.83,4.66-13-.83-28.53-12.48-38.13-24.89-2.63-3.4-8.91-14.84-12.26-14.63-1.24.08-2.75,1.85-3.7,2.99-12.22,14.68-24.17,40.01-42.6,36.98-3.9-.64-3.33-6.2-.34-6.07s5.21.13,8.29-.94c9.97-3.48,18.8-16.09,26.04-26Z"/>
  <path class="cls-1" d="M60.36,86.16c3.42.36,9.55,2.1,10.04,6.73.47,4.36-1.14,6.58-4.36,8.56l-5.07,1.91c3.33.13,6.69,1.38,7.98,5.13s.45,9.96,5.74,7.89c1.49.17-2.06,2.25-2.73,2.48-3.27,1.12-9.64,1.3-11.19-2.94-1.91-5.22-.13-14.06-7.99-12.56v12.32c0,1.93,3.52,1.89,3.69,2.1.03.03.04.93,0,.93h-16.39c-.21-1.34.3-.76.9-1.05,1.77-.85,2.17-.29,2.4-2.88.71-8.03-.56-17.41-.03-25.59-.09-2.36-3.38-1.02-3.27-3.04,6.54.5,13.83-.68,20.28,0ZM52.78,102.44c6.7,1.27,10.23-5.97,7.46-12.42-1.54-3.58-7.46-3.27-7.46-1.3v13.72Z"/>
  <path class="cls-1" d="M14.19,85.83c9.71-1.32,21.94,1.68,22.63,14.97,1.4,26.97-43.34,24.18-35.95-3.57,1.62-6.07,7.97-10.67,13.31-11.39ZM16.62,86.74c-9.11,2.18-9.09,28.35-.31,31.3,14.38,4.84,14.76-34.76.31-31.3Z"/>
  <path class="cls-1" d="M126.93,118.72c-1.03,1.19-1.82-1.94-2.03-2.11-1.34-1.07-5.24,1.47-6.89,1.98-8.99,2.8-22.48-.56-23.45-13.11-1.16-14.95,9.39-20.81,21.13-19.8,3.49.3,4.38,1.73,7.05,2.7,3.08,1.12.99-2.81,3.38-2.21v11.63c-2.21.29-1.79-3.84-2.78-5.91-1.86-3.88-6.89-5.31-10.49-4.75-10.45,1.64-10.9,29.56-.82,31.07,1.48.22,4.84.15,5.32-1.77.42-1.7.47-8.39-.64-9.57-.66-.71-2.24-.8-3.14-1.11-.68-.23-1.15.37-.95-.99h16.39c.61,1.26-2.05,1.29-2.05,2.09,0,1.63.37,11.44,0,11.86Z"/>
  <path class="cls-2" d="M158.88,86.16c.15.5-.41,1.02-.41,1.16v9.53c-.46-.07-.93.28-1.27-.27-.97-1.59-.72-4.79-2.81-6.96s-10.26-3.24-10.26-.91v13.25c2.58.07,4.9-1.36,6.33-3.74.91-1.51.01-2.8,2.27-2.31-.92,4.36.02,8.44,0,12.78-1.84.99-1.81-2.57-3.18-3.96s-3.66-2.04-5.42-1.85v13.25c0,1.53,5.35,1.3,6.37,1.19,2.99-.34,4.79-2.2,6.13-5.13.62-1.37,1.25-4.95,1.43-5.12.11-.1.88.06,1.22,0-.1,3.9.03,7.76.41,11.63h-28.26c-.11-.97-.07-.76.52-1.04,1.83-.89,2.52.11,2.78-2.88.71-8.03-.56-17.41-.03-25.59-.09-2.36-3.38-1.02-3.27-3.04h27.45Z"/>
  <path class="cls-2" d="M191.65,106.16v-15.58c0-3.55-4.54-2-4.92-4.42h10.24c.04,1.64-3.69,1.81-3.69,3.95v28.6h-3.06c-7.66-7.16-14.55-15.62-21.92-23.25v18.83c0,.25.74,1.86,1,2.12,1.11,1.1,3.97.44,3.92,2.3h-9.83c.06-1.96,2.27-1.15,2.98-2.9.39-.98.66-4.4.73-5.68.27-5.12.39-13.56-.07-18.57-.07-.76-.37-2.86-.73-3.36-.8-1.13-3.16-.3-2.91-2.05h8.81l18.23,19.3,1.23.69Z"/>
  <path class="cls-2" d="M91.7,86.16c.24,1.84-2.17.91-3.08,1.85-.53.55-.56,1.77-.62,2.55-.61,7.82.47,16.7.05,24.64.33,2.39,1.24,1.87,2.76,2.47.67.26,1.08-.23.9,1.05h-16.39c-.11-.97-.07-.76.52-1.04,1.83-.89,2.52.11,2.78-2.88.71-8.03-.56-17.41-.03-25.59-.09-2.36-3.38-1.02-3.27-3.04h16.39Z"/>
  <path class="cls-1" d="M81.21,63.37c.28-.43,1.68-1.23,2.3-1.99,4.53-5.5,4.7-15.3,8.94-22.32,1.17-1.93,4.95-7.28,6.72-5.61,2.92,2.75-1.92,6.82-3.06,8.62-2.5,3.98-2.63,9.02-4.08,13.59-1.15,3.64-6.96,13.79-9.96,12.51-1.38-.59-1.74-3.48-.87-4.81Z"/>
  <path class="cls-2" d="M63.64,135c.3.05,1.86.7,2.08.9,3.5,3.17-4.53,7.13-4.3,8.57,2.85,3.34,3.65,9.39,7.74,11,.17-1.5,1.21-2.51,1.74-3.85,1.28-3.25,2.73-5.97,4.07-9.33.72-1.79,2.23-8.64,4.22-8.22l7.16,22.51c-.21.83-2.08,1.01-2.41.7-.24-.23-1.07-6.26-1.76-6.84-.87-.73-8.33-.91-9.13-.1-.86.87-1.65,5.61-2.65,6.3-.2.14-4.39.31-4.65.24-.54-.14-4.39-9.65-5.81-10.72l-1.84-.47v10.46c0,.08-.63.82-.83.92-2.92,1.58-1.11-2.29-1.04-3.87.19-3.96.25-10.35.16-14.27-.03-1.13-1.75-3.94.27-3.94s5.06-.31,6.96,0ZM58.11,143.37c.68.79,5.48-3.09,5.94-4.19,1.44-3.51-4.3-2.73-5.94-2.56-.72.61.2,5.57,0,6.76ZM74.09,148.01c1.13-.14,7.24,1.37,7.35-.22.04-.62-2.88-7.46-3.46-8.6l-3.89,8.82Z"/>
  <path class="cls-2" d="M101.1,134.09l9.65,17.66c.27-4.22.34-8.57.22-12.81-.06-2.29-1.56-4.38,1.62-4.86.22,6.96-.54,14.13.4,21.13l-1.44,2.11-10.22-17.65c-1.01,1.2-.2,2.6-.18,3.93.03,2.83.45,10.31,0,12.49-.12.59-1.54.81-2.06.78l-.41-20.67c.19-1.19,1.36-2.36,2.44-2.09Z"/>
  <path class="cls-2" d="M163.68,134.13c5.74.41,14.91-.5,15.29,8.53.35,8.35-7.72,15.15-14.56,14.7-2.82-.18-.37-1.84-.18-3.5.38-3.3.03-12.41-.45-15.81-.26-1.8-2.29-2.64-.09-3.91ZM165.84,135.92c-.22,6.18,0,12.21.41,18.37l.64,1.14c3.57-.91,8.17-3.8,9.32-7.97,2.45-8.9-3.61-11.83-10.37-11.54Z"/>
  <path class="cls-2" d="M15.51,134.07c.28.39-.05,1.57-.68,1.8-1.43.52-2.47-.97-2.59-.86-.04.03.12.79-.29.92-1.76.56-4.44.31-5.9,2.53-2.59,3.94,6.51,3.37,7.92,3.63,6.91,1.3,3.78,12.5-1.12,14.79-3.05,1.43-8.49.87-10.72-2.04-1.95-2.54-.31-5.38.86-3.54.47.73.3,2.36,1.34,3.25,2.47,2.11,7.73,1.97,9.75-.92,1.07-1.53,2.11-5.8,1.21-7.47-.75-1.41-4.82-1.69-6.13-1.42-.58.12.2,1.59-.63,1.42v-2.32c-.7-.21-.2.96-.64.96-1.68.02-4.14-1.88-4.27-4.02-.24-4.26,6.18-7.1,9.22-7.19.4-.01,2.56.37,2.64.48Z"/>
  <path class="cls-2" d="M36.4,134.53c.49.58-.34,1.86-1.02,1.86h-8.4c-.14,0-.26,1.92,0,2.33h7.17c.07,0,.82-.74,1.02-.46.24.33-.11,2.32-.61,2.32h-7.58l.2,14.41,12.7-.94c1.19-.4.36,2.13.15,2.27-.97.66-7.1.02-8.76.05-2.31.03-4.83.43-7.15.49-.1-1.27.64-2.31.79-3.52.49-4.08.29-12.63-.38-16.63-.07-.4-1.17-.18-.82-1.46.06-.22.97-.71,1.03-.71,1.59,0,11.27-.48,11.67,0Z"/>
  <path class="cls-2" d="M127.34,134.53c.49.58-.34,1.86-1.02,1.86h-8.4c-.14,0-.26,1.92,0,2.33h7.17c.07,0,.82-.74,1.02-.46.24.33-.11,2.32-.61,2.32h-7.58l.2,14.41,12.7-.94c1.19-.4.36,2.13.15,2.27-.97.66-7.1.02-8.76.05-2.31.03-4.83.43-7.15.49-.1-1.27.64-2.31.79-3.52.49-4.08.29-12.63-.38-16.63-.07-.4-1.17-.18-.82-1.46.06-.22.97-.71,1.03-.71,1.59,0,11.27-.48,11.67,0Z"/>
  <path class="cls-2" d="M49.71,135c.3.05,1.86.7,2.08.9,3.5,3.17-4.53,7.12-4.3,8.57,2.26,2.38,3.63,8.1,5.89,10.1.54.48,1.75.16,1.45,1.12-.33,1.06-2.46,1.62-3.21,1.09-.14-.1-1.02-2.65-1.38-3.31-.74-1.39-3.41-6.54-4.22-7.3-.63-.59-1.08-.53-1.84-.47v10.46c0,.08-.63.82-.83.92-2.92,1.58-1.11-2.29-1.04-3.87.19-3.96.25-10.35.16-14.27-.03-1.13-1.75-3.94.27-3.94s5.06-.31,6.96,0ZM44.18,136.39v6.98c1.44-.05,3.36-1.54,4.47-2.6,2.62-2.49,2.38-3.78-1.1-4.27-1.27-.18-2.23.42-3.37-.1Z"/>
  <path class="cls-2" d="M160.14,157.27c-.24-.23-1.25-6.34-1.76-6.84-.63-.63-8.17-.86-8.94-.33-.87,1.26-2.23,6.87-3.53,7.13-3.01.59.59-4.19,1.17-5.62,1.26-3.07,2.67-5.87,3.95-9.01.85-2.08,2.04-8.16,4-8.49,1.08-.18,1.42,4.08,1.78,5.32,1.64,5.54,3.72,10.97,5.69,16.37.6,1.48-1.86,1.96-2.36,1.48ZM150.28,148.01c1.09-.13,7.3,1.35,7.36-.23.02-.47-2.9-7.54-3.47-8.6l-3.89,8.82Z"/>
  <path class="cls-2" d="M194.96,157.27c-.24-.23-1.25-6.34-1.76-6.84-.63-.63-8.17-.86-8.94-.33-.87,1.26-2.23,6.87-3.53,7.13-3.01.59.59-4.19,1.17-5.62,1.26-3.07,2.67-5.87,3.95-9.01.85-2.08,2.04-8.16,4-8.49,1.08-.18,1.42,4.08,1.78,5.32,1.64,5.54,3.72,10.97,5.69,16.37.6,1.48-1.86,1.96-2.36,1.48ZM185.1,148.01c1.09-.13,7.3,1.35,7.36-.23.02-.47-2.9-7.54-3.47-8.6l-3.89,8.82Z"/>
  <path class="cls-2" d="M144.95,134.07l-4.77,22.22-1.53,1-7.15-21.49c.38-1.01,1.44-1.86,2.19-.8l5.53,17.2,3.78-16.87c.1-.62,1.69-1.58,1.96-1.26Z"/>
  <path class="cls-2" d="M22.06,133.14l.02,22.94-2.26,1.24c-.37-.34-.53-.46-.54-1.05-.03-2,.69-5.01.76-7.07.09-3,.08-6.34,0-9.34s-1.95-6.43,2.03-6.72Z"/>
</svg>