<?xml version="1.0" encoding="UTF-8"?>
<svg id="Capa_1" xmlns="http://www.w3.org/2000/svg" version="1.1" xmlns:xlink="http://www.w3.org/1999/xlink" viewBox="0 0 3632.2 792.6">
  <!-- Generator: Adobe Illustrator 29.4.0, SVG Export Plug-In . SVG Version: 2.1.0 Build 152)  -->
  <defs>
    <style>
      .st0 {
        fill: url(#Degradado_sin_nombre_5);
      }

      .st1 {
        fill: url(#Degradado_sin_nombre_510);
      }

      .st2 {
        fill: url(#Degradado_sin_nombre_58);
      }

      .st3 {
        fill: url(#Degradado_sin_nombre_53);
      }

      .st4 {
        fill: url(#Degradado_sin_nombre_54);
      }

      .st5 {
        fill: url(#Degradado_sin_nombre_511);
      }

      .st6 {
        fill: url(#Degradado_sin_nombre_59);
      }

      .st7 {
        fill: url(#Degradado_sin_nombre_56);
      }

      .st8 {
        fill: url(#Degradado_sin_nombre_55);
      }

      .st9 {
        fill: url(#Degradado_sin_nombre_52);
      }

      .st10 {
        fill: url(#Degradado_sin_nombre_51);
      }

      .st11 {
        fill: url(#Degradado_sin_nombre_57);
      }
    </style>
    <linearGradient id="Degradado_sin_nombre_5" data-name="Degradado sin nombre 5" x1="1702" y1="419.7" x2="2434.2" y2="419.7" gradientUnits="userSpaceOnUse">
      <stop offset="0" stop-color="#edb964"/>
      <stop offset="0" stop-color="#ca9643"/>
      <stop offset=".4" stop-color="#6e3400"/>
      <stop offset=".7" stop-color="#ffff7f"/>
      <stop offset="1" stop-color="#905b00"/>
    </linearGradient>
    <linearGradient id="Degradado_sin_nombre_51" data-name="Degradado sin nombre 5" x1="2321.6" y1="391.4" x2="2790.6" y2="391.4" xlink:href="#Degradado_sin_nombre_5"/>
    <linearGradient id="Degradado_sin_nombre_52" data-name="Degradado sin nombre 5" x1="407.4" y1="391" x2="876.4" y2="391" xlink:href="#Degradado_sin_nombre_5"/>
    <linearGradient id="Degradado_sin_nombre_53" data-name="Degradado sin nombre 5" x1="3173.4" y1="411.7" x2="3632.2" y2="411.7" xlink:href="#Degradado_sin_nombre_5"/>
    <linearGradient id="Degradado_sin_nombre_54" data-name="Degradado sin nombre 5" x1="0" y1="389.5" x2="404" y2="389.5" xlink:href="#Degradado_sin_nombre_5"/>
    <linearGradient id="Degradado_sin_nombre_55" data-name="Degradado sin nombre 5" x1="1237.6" y1="399.7" x2="1550.1" y2="399.7" xlink:href="#Degradado_sin_nombre_5"/>
    <linearGradient id="Degradado_sin_nombre_56" data-name="Degradado sin nombre 5" x1="897.6" y1="400.4" x2="1174" y2="400.4" xlink:href="#Degradado_sin_nombre_5"/>
    <linearGradient id="Degradado_sin_nombre_57" data-name="Degradado sin nombre 5" x1="2815.8" y1="404.9" x2="3140" y2="404.9" xlink:href="#Degradado_sin_nombre_5"/>
    <linearGradient id="Degradado_sin_nombre_58" data-name="Degradado sin nombre 5" x1="1388.5" y1="54.6" x2="1500.1" y2="54.6" xlink:href="#Degradado_sin_nombre_5"/>
    <linearGradient id="Degradado_sin_nombre_59" data-name="Degradado sin nombre 5" x1="3444.1" y1="75.6" x2="3507.6" y2="75.6" xlink:href="#Degradado_sin_nombre_5"/>
    <linearGradient id="Degradado_sin_nombre_510" data-name="Degradado sin nombre 5" x1="3314.1" y1="75.7" x2="3375.5" y2="75.7" xlink:href="#Degradado_sin_nombre_5"/>
    <linearGradient id="Degradado_sin_nombre_511" data-name="Degradado sin nombre 5" x1="1860" y1="253.9" x2="1864.2" y2="253.9" xlink:href="#Degradado_sin_nombre_5"/>
  </defs>
  <path class="st0" d="M2434,773.9c-.2,3.3,1.2,8.7-1.9,11-2.2,1.7-24.8,6.5-29.1,6.9-119,11.2-176-113.3-184.7-213.2-9.1-108.9-20.1-217.6-26.3-326.7-6.6,8.3-10.8,20.2-14.9,30.1-46.2,109.4-101.9,233.1-139.6,344.4-1.9,5.8-8.8,37.1-10.7,37.7-3.3.9-11.3.5-12.4-3.5l-148.2-399.5-6.2-1.2-32.1,351.1c1.4,13.6,6.5,25.3,20.4,29.5,10.6,3.2,23.1-1.5,19.6,13.4l-130,2c-3.5-18,7.8-11.6,20-15,18-5,26.5-19.5,31.5-36.5l46.3-411.4c-13.1-37.6-30.2-76.6-60.8-103.2-18.9-16.5-47.3-32.5-73-26v-14c26.2-3.5,46.7-5.3,72.4,2.6,84.8,26,116.2,133,145.1,206.9,36.8,94.3,72.8,190,106.6,285.4,1.7,4.9,2.6,10.1,3.9,15.1l181.8-442.8,14.2-1.2,38,385c8.6,76.6,15,183.8,74,240,12.9,12.3,45.3,33,63,33h33ZM1864,249.9h-4v8c4-1.1,4.5-4.3,4-8h0Z"/>
  <path class="st10" d="M2565.8,126.2l167.9,477.1c5.9,13.1,18.6,30.5,32.4,35.6,11.4,4.2,27.9-.5,23.9,15l-147.1.2c-4.7-15.9,6.7-10.6,16.8-13.5,12.7-3.6,15.6-13.4,16.4-25.6-10.7-42.8-27-84.2-38.2-126.9l-176.6-.3-41.2,121.1c-1.4,14,1.3,27.2,16,32.1,6,2,23.8.4,15.2,13.1-3.6,5.3-112.3.5-127.2,1-7.9-16.3,6.3-11.2,16.1-14.1,23.9-7,32.6-24.6,42.3-45.7l173.4-468.2,9.9-.9h0ZM2472,459.9h156l-75-236-81,236Z"/>
  <path class="st9" d="M651.8,126.1l167.9,479.1c7.8,16,20,31.5,38.2,35.8,10.7,2.5,20.4-3.7,18.1,12.9h-147.1c-5.1-16.4,8.3-10,18.3-13.8,13.2-5.1,14.1-19,12.9-31.2l-38.3-120.7-174.5-.4-41.3,121.1c-1.1,13.9-.3,26.2,14.6,31.5,6.6,2.3,25.2.9,16.6,13.7-4.4,6.5-110-2.6-125.8,1.7-11.8-16.1,6-12.3,16.4-15.2,17.4-4.8,27.9-19,35.8-34.2l176.9-477.1c1.9-4.4,7.4-3.8,11.5-3.1h0ZM712,459.9l-74-236-80,236h154Z"/>
  <path class="st3" d="M3314,155.9c-.4,2.3.6,9.3,0,10-.8.8-17.7,1.6-22,3-16.9,5.5-22.4,24.3-23.9,40.1,3.7,88.8-5,181.7-.1,270,5.2,93.8,52.8,166.3,155.2,159,84.2-6,122.4-76,127-153,5.7-94.6-4.3-194.8-.2-290-4.3-13.5-9.9-21.9-23.8-26.1-10.7-3.2-21.3,1.3-18-13h124c-.4,2.3.6,9.3,0,10-.7.7-16.6,1.4-20.4,2.6-9.1,2.6-16.1,9.7-19.9,18.1s-5.2,26-5.7,36.3c-5.7,104.1,23.4,289.7-33.9,374.1-62.7,92.5-227.1,93.9-294,5.9-72.7-95.6-26.7-288.8-40.2-403.8-1.7-12.2-11.9-26.3-23.8-30.2-10.6-3.5-23.6,2.1-20-13h140Z"/>
  <path class="st4" d="M379.5,162.4c5.6,38.2,9,76.9,10.5,115.5-2.7-.4-7.8.9-9.7-.3-1.2-.8-5.2-23.2-6.9-28.1-24.4-73.9-85.2-115.4-163.9-107C-4.1,165.1,1.8,649.6,237,637.9c96.2-4.8,136.8-83.2,152.4-167.6.8-4.3,1.8-21.6,2.6-22.4.6-.6,9.5.4,12,0-4,27.8-1.9,57.3-4,85-5.6,72-89.1,128.5-156.9,133.1C33.2,680.1-33.4,452.6,15,283.9,63.7,114.1,238.2,64.1,379.5,162.4Z"/>
  <path class="st8" d="M1514,143.9v94c-2.3-.4-9.3.6-10,0-1.6-1.6-.5-29.8-12.4-42.6-3.1-3.3-14.9-11.3-18.7-11.3h-137v220h105c11,0,25.9-12.5,28.5-23.5.9-3.7,1.2-21.1,2.6-22.4,1-1,9.2.4,11.9-.1v117c0,2.9-10.9,4-12,3-1.3-1.2,1.5-21.7-7.1-33.9-5.1-7.2-19.5-14.1-27.9-14.1h-101v198h113c3.2,0,23.5-6.5,27.7-8.3,34.5-14.7,50.9-50.7,62.5-83.9h10.8c.3,3,0,5.8-.5,8.6-3.8,25.5-19.1,79.2-28,104-1,2.8-1.5,6.1-4.8,7.2l-277.8-1.5c-6.1-14.9,10.9-10.6,21.7-14.5,17-6.3,24.8-23.2,25.5-40.5V208.9c-1.9-17.3-9.2-33.5-26.6-39.5-10.6-3.6-22.8,1.4-19.4-13.6h209.1c22.1-1.7,43.5-6.8,64.9-12h0Z"/>
  <path class="st7" d="M1174,143.9v94c-16.5,3.7-10.7-12.7-12.9-24.1-1.1-5.8-5-14.1-9.1-18.3-2.7-2.8-18.2-11.6-21-11.6h-135v220h103c2,0,13.2-4.8,15.7-6.3,18.3-11.4,13.7-38,15.3-39.7.6-.6,9.5.4,12,0v117c0,2.9-10.9,4-12,3-1.2-1.1,1.2-21.7-5.1-31.9-4.3-6.9-20.3-16.1-27.9-16.1h-101v177c0,2.5,5.8,15.4,7.6,18.4,12.3,19.8,37.7,15.9,40.2,18.8,1.2,1.4.5,9.4-1.7,10.9-6.8,4.8-124.5-1.3-142.2,0-8.3-16.2,7.8-11,18.2-14.1,19.3-5.7,26.7-23.5,28-42,9-124.7-6.9-260.2-.1-386-1.3-17.6-8.5-39.2-27.9-44.1-10.6-2.7-20.3,3.7-18.1-12.9h211.1c21.5-1.8,42.1-6.9,62.9-12h0Z"/>
  <path class="st11" d="M2962,155.9c-.4,2.3.6,9.3,0,10-.8.8-16.3,1.6-21.4,3.6-12.3,4.8-26.6,24.2-26.6,37.4v421h119c4.3,0,18.6-4.7,23.5-6.5,39.7-14.7,58.3-51.7,70.7-89.7l12.8,1.2-34.4,120.6-289.6.4c.4-2.2-.6-9.3,0-10,.8-.8,17-2.2,22.6-4.4,18.7-7.5,24.1-23.5,25.5-42.5,9-124-6.9-258.9-.1-384-1.2-16.3-9.9-37.5-26.5-43.5-4.3-1.6-20.6-2.9-21.4-3.6-.9-.9.3-7.5-.1-9.9h146Z"/>
  <path class="st2" d="M1471.4.2c9.8-2.5,27.8,24.7,28.6,32.9.9,10.1-9.7,16.1-16.6,21.2-19.1,14.3-44.4,30.2-64.8,43.2-4.3,2.7-19.1,13.2-22.6,11.5-2.2-1.1-9.4-8.2-7.1-11,13.5-12.5,71.5-95,82.5-97.8Z"/>
  <path class="st6" d="M3497.3,101.2c-34,32-75.4-27.5-39.2-54.2,32.4-23.9,67.1,27.9,39.2,54.2Z"/>
  <path class="st1" d="M3337.5,42.4c45.1-9.4,51.7,63.2,11.3,67.4-41.5,4.4-46.5-60.1-11.3-67.4Z"/>
  <path class="st5" d="M1864,249.9c.5,3.7,0,6.9-4,8v-8h4Z"/>
</svg>