<?xml version="1.0" encoding="UTF-8"?>
<svg id="Capa_1" data-name="Capa 1" xmlns="http://www.w3.org/2000/svg" viewBox="0 0 241.89 376.38">
  <defs>
    <style>
      .cls-1, .cls-2 {
        fill: #c9bf77;
      }

      .cls-2 {
        font-family: Papyrus-Regular, Papyrus;
        font-size: 18px;
      }

      .cls-3 {
        fill: #cac07a;
      }
    </style>
  </defs>
  <path class="cls-1" d="M158.37,135.73c-2.36-.58-4.4-2.21-6.21-4.06-3.99-4.06-11.16-15.53-15.12-17.67-1.31-.71-2.79-.82-4.14-1.58-4.43-2.5-6.38-6.93-9.82-10.36-2.8-2.79-3.66-.98-6.33,1.29-6.9,5.85-12.54,15.06-19.55,20.35-1.61,1.21-3.55,1.97-5.13,3.24-5.49,4.42-9.31,15.22-17.07,9.46-2.42-1.79-6.29-7.35-8.79-7.81-4.93-.89-11.47,8.73-15.11,12.37-12.35,12.35-29.08,26.14-45.43,27.64-4.61.43-5.97.23-5.58-6.15,14.89.07,29.13-8.99,40.7-19.86,5.68-5.33,11.18-12.4,17.15-17.09s9.53-4.51,15.06.47c1.7,1.53,4.98,6.56,6.99,5.69,1.68-.73,4.92-5.92,6.65-7.59,3.09-2.99,6.97-4.82,10.24-7.93,5.29-5.04,17.21-21.11,23.33-21.92,5.72-.76,9.89,9.46,14.51,12.14,1.5.87,3.17,1.22,4.79,2.22,5.89,3.64,10.66,12.64,15.76,17.85,1.45,1.48,3.79,3.65,5.64,3.6,4.77-.13,6.42-8.36,13.57-7.67,6.01.58,14.87,14.11,19.8,19.08,9.03,9.11,24.11,18.93,35.73,20.96,2.3.4,7.98-.21,9.25,1.98,2.54,4.38-2.18,4.91-4.66,4.78-15.8-.85-34.68-12.82-46.35-25.56-3.2-3.49-10.82-15.23-14.9-15.02-1.51.08-3.35,1.9-4.5,3.07-14.86,15.07-29.38,41.08-51.79,37.96-4.74-.66-4.05-6.36-.41-6.23s6.34.13,10.08-.97c12.11-3.57,22.85-16.52,31.65-26.7Z"/>
  <path class="cls-1" d="M73.31.64c4.16.37,11.6,2.16,12.21,6.91.57,4.48-1.39,6.75-5.3,8.79l-6.16,1.96c4.04.13,8.13,1.41,9.7,5.27s.55,10.23,6.98,8.1c1.81.17-2.51,2.31-3.32,2.55-3.98,1.15-11.71,1.34-13.6-3.02-2.32-5.36-.16-14.44-9.71-12.89v12.65c0,1.99,4.28,1.94,4.48,2.15.03.04.05.95,0,.95h-19.92c-.25-1.37.36-.78,1.1-1.07,2.16-.87,2.64-.29,2.91-2.96.86-8.24-.69-17.87-.04-26.27-.1-2.42-4.11-1.04-3.97-3.12,7.95.52,16.81-.69,24.65,0ZM64.1,17.35c8.15,1.31,12.43-6.13,9.07-12.75-1.87-3.67-9.07-3.35-9.07-1.33v14.08Z"/>
  <path class="cls-1" d="M17.19.29c11.8-1.36,26.67,1.73,27.51,15.36,1.7,27.69-52.68,24.82-43.69-3.67C2.97,5.76,10.69,1.04,17.19.29ZM20.15,1.22c-11.07,2.23-11.05,29.1-.38,32.14,17.47,4.97,17.94-35.68.38-32.14Z"/>
  <path class="cls-1" d="M154.22,34.06c-1.26,1.22-2.21-1.99-2.47-2.17-1.63-1.1-6.37,1.5-8.38,2.03-10.93,2.88-27.33-.57-28.51-13.46C113.46,5.12,126.28-.9,140.55.14c4.24.31,5.32,1.77,8.57,2.77,3.74,1.15,1.2-2.88,4.1-2.27v11.94c-2.68.3-2.18-3.94-3.38-6.07-2.26-3.99-8.37-5.45-12.76-4.87-12.7,1.68-13.25,30.35-1,31.9,1.8.23,5.89.15,6.46-1.82.51-1.74.57-8.61-.78-9.83-.8-.72-2.73-.82-3.82-1.14-.82-.24-1.4.38-1.16-1.01h19.92c.74,1.29-2.49,1.33-2.49,2.15,0,1.68.45,11.74,0,12.17Z"/>
  <path class="cls-3" d="M193.05.64c.19.51-.5,1.05-.5,1.19v9.79c-.56-.07-1.13.29-1.54-.28-1.18-1.63-.87-4.92-3.42-7.14s-12.47-3.32-12.47-.93v13.61c3.14.07,5.95-1.39,7.7-3.84,1.11-1.55.01-2.87,2.75-2.37-1.12,4.47.02,8.66,0,13.12-2.24,1.01-2.2-2.64-3.87-4.06s-4.45-2.1-6.59-1.9v13.61c0,1.57,6.5,1.34,7.74,1.22,3.63-.34,5.82-2.26,7.45-5.27.76-1.41,1.52-5.09,1.74-5.26.14-.11,1.07.06,1.48,0-.12,4.01.04,7.97.5,11.94h-34.36c-.14-1-.08-.78.63-1.07,2.23-.92,3.06.11,3.38-2.96.86-8.25-.68-17.87-.04-26.27-.1-2.42-4.11-1.04-3.97-3.12h33.36Z"/>
  <path class="cls-3" d="M232.89,21.17V5.17c0-3.65-5.52-2.05-5.97-4.54h12.45c.05,1.68-4.48,1.86-4.48,4.06v29.36h-3.72c-9.31-7.35-17.69-16.04-26.65-23.87v19.34c0,.26.9,1.91,1.22,2.18,1.35,1.13,4.83.45,4.76,2.36h-11.95c.08-2.01,2.76-1.18,3.62-2.98.48-1,.81-4.52.89-5.83.33-5.26.47-13.92-.09-19.06-.09-.79-.45-2.94-.88-3.45-.97-1.16-3.85-.31-3.53-2.1h10.7l22.15,19.82,1.5.71Z"/>
  <path class="cls-3" d="M111.4.64c.29,1.88-2.64.94-3.75,1.9-.65.56-.68,1.81-.76,2.62-.75,8.03.57,17.14.06,25.29.4,2.45,1.51,1.92,3.36,2.53.82.27,1.32-.24,1.09,1.08h-19.92c-.14-1-.08-.78.63-1.07,2.23-.92,3.06.11,3.38-2.96.86-8.25-.68-17.87-.04-26.27-.1-2.42-4.11-1.04-3.97-3.12h19.92Z"/>
  <path class="cls-1" d="M98.73,159.24c.34-.44,2.04-1.26,2.8-2.04,5.51-5.64,5.71-15.71,10.87-22.91,1.42-1.98,6.02-7.47,8.17-5.76,3.55,2.82-2.34,7.01-3.72,8.85-3.04,4.08-3.2,9.26-4.96,13.95-1.4,3.73-8.46,14.16-12.11,12.84-1.68-.61-2.12-3.57-1.05-4.94Z"/>
  <path class="cls-3" d="M77.29,50.77c.37.05,2.26.71,2.53.92,4.25,3.25-5.5,7.32-5.22,8.8,3.46,3.43,4.44,9.65,9.41,11.29.21-1.54,1.47-2.58,2.11-3.95,1.56-3.33,3.32-6.13,4.95-9.57.87-1.83,2.72-8.87,5.13-8.44l8.7,23.11c-.26.85-2.53,1.04-2.92.72-.29-.24-1.3-6.42-2.14-7.02-1.06-.75-10.12-.93-11.1-.1-1.05.89-2.01,5.76-3.22,6.47-.24.14-5.33.32-5.65.25-.66-.14-5.34-9.9-7.06-11l-2.24-.48v10.74c0,.08-.77.84-1,.95-3.55,1.62-1.35-2.35-1.26-3.97.23-4.06.31-10.62.2-14.65-.03-1.16-2.13-4.04.33-4.04s6.15-.32,8.46,0ZM70.57,59.37c.83.81,6.66-3.17,7.22-4.31,1.75-3.61-5.22-2.8-7.22-2.63-.87.63.24,5.72,0,6.94ZM89.99,64.13c1.37-.14,8.81,1.4,8.94-.23.05-.63-3.5-7.65-4.21-8.83l-4.73,9.06Z"/>
  <path class="cls-3" d="M122.83,49.83l11.73,18.13c.33-4.34.41-8.8.27-13.15-.08-2.35-1.89-4.5,1.97-4.99.27,7.14-.66,14.51.49,21.69l-1.75,2.16-12.43-18.12c-1.22,1.24-.24,2.67-.22,4.04.03,2.91.55,10.58,0,12.83-.15.61-1.88.83-2.51.8l-.5-21.22c.23-1.22,1.66-2.43,2.96-2.15Z"/>
  <path class="cls-3" d="M198.89,49.88c6.98.42,18.13-.52,18.58,8.76.42,8.57-9.38,15.55-17.7,15.09-3.43-.19-.45-1.89-.22-3.6.46-3.39.04-12.74-.55-16.23-.31-1.84-2.78-2.71-.11-4.02ZM201.52,51.72c-.27,6.34,0,12.54.5,18.86l.78,1.17c4.33-.94,9.93-3.9,11.32-8.18,2.98-9.14-4.38-12.14-12.61-11.85Z"/>
  <path class="cls-3" d="M18.79,49.82c.33.4-.06,1.61-.82,1.85-1.74.53-3-.99-3.15-.89-.04.03.14.81-.35.94-2.14.57-5.39.31-7.17,2.6-3.15,4.04,7.91,3.46,9.62,3.73,8.39,1.33,4.59,12.83-1.36,15.18-3.71,1.46-10.32.89-13.03-2.1-2.37-2.61-.38-5.52,1.05-3.63.57.75.36,2.42,1.63,3.34,3,2.17,9.39,2.03,11.85-.94,1.3-1.57,2.56-5.95,1.47-7.67-.92-1.45-5.86-1.73-7.45-1.46-.71.12.25,1.63-.77,1.46v-2.38c-.86-.22-.25.98-.78.99-2.05.02-5.04-1.93-5.18-4.12-.3-4.37,7.51-7.29,11.21-7.39.48-.01,3.11.38,3.21.5Z"/>
  <path class="cls-3" d="M44.18,50.29c.6.6-.42,1.91-1.24,1.91h-10.21c-.17,0-.31,1.97,0,2.39h8.71c.09,0,1-.76,1.24-.48.29.33-.13,2.39-.74,2.39h-9.21l.24,14.79,15.43-.96c1.44-.41.44,2.18.18,2.33-1.18.68-8.63.02-10.65.05-2.81.03-5.87.44-8.69.5-.12-1.31.78-2.37.96-3.61.6-4.19.36-12.96-.47-17.07-.08-.41-1.42-.19-1-1.5.07-.22,1.18-.73,1.26-.73,1.93,0,13.7-.49,14.19,0Z"/>
  <path class="cls-3" d="M154.72,50.29c.6.6-.42,1.91-1.24,1.91h-10.21c-.17,0-.31,1.97,0,2.39h8.71c.09,0,1-.76,1.24-.48.29.33-.13,2.39-.74,2.39h-9.21l.24,14.79,15.43-.96c1.44-.41.44,2.18.18,2.33-1.18.68-8.63.02-10.65.05-2.81.03-5.87.44-8.69.5-.12-1.31.78-2.37.96-3.61.6-4.19.36-12.96-.47-17.07-.08-.41-1.42-.19-1-1.5.07-.22,1.18-.73,1.26-.73,1.93,0,13.7-.49,14.19,0Z"/>
  <path class="cls-3" d="M60.36,50.77c.37.05,2.26.71,2.53.92,4.25,3.25-5.5,7.31-5.22,8.8,2.74,2.45,4.41,8.31,7.16,10.36.66.49,2.13.17,1.76,1.15-.41,1.08-2.99,1.66-3.9,1.12-.17-.1-1.24-2.72-1.67-3.4-.89-1.43-4.15-6.71-5.13-7.49-.76-.6-1.32-.55-2.24-.48v10.74c0,.08-.77.84-1,.95-3.55,1.62-1.35-2.35-1.26-3.97.23-4.06.31-10.62.2-14.65-.03-1.16-2.13-4.04.33-4.04s6.15-.32,8.46,0ZM53.64,52.2v7.16c1.76-.05,4.08-1.59,5.43-2.67,3.19-2.56,2.89-3.88-1.34-4.39-1.55-.19-2.71.43-4.09-.1Z"/>
  <path class="cls-3" d="M194.59,73.64c-.29-.24-1.52-6.51-2.13-7.02-.76-.64-9.93-.88-10.86-.34-1.06,1.29-2.71,7.06-4.29,7.32-3.65.6.72-4.31,1.43-5.77,1.53-3.16,3.24-6.02,4.8-9.25,1.03-2.14,2.48-8.38,4.86-8.72,1.31-.19,1.72,4.19,2.16,5.46,1.99,5.69,4.52,11.26,6.91,16.8.73,1.52-2.26,2.02-2.87,1.52ZM182.6,64.13c1.33-.13,8.87,1.39,8.95-.23.02-.48-3.53-7.74-4.22-8.83l-4.73,9.06Z"/>
  <path class="cls-3" d="M236.91,73.64c-.29-.24-1.52-6.51-2.13-7.02-.76-.64-9.93-.88-10.86-.34-1.06,1.29-2.71,7.06-4.29,7.32-3.65.6.72-4.31,1.43-5.77,1.53-3.16,3.24-6.02,4.8-9.25,1.03-2.14,2.48-8.38,4.86-8.72,1.31-.19,1.72,4.19,2.16,5.46,1.99,5.69,4.52,11.26,6.91,16.8.73,1.52-2.26,2.02-2.87,1.52ZM224.92,64.13c1.33-.13,8.87,1.39,8.95-.23.02-.48-3.53-7.74-4.22-8.83l-4.73,9.06Z"/>
  <path class="cls-3" d="M176.12,49.82l-5.8,22.81-1.86,1.03-8.69-22.06c.46-1.04,1.75-1.91,2.66-.82l6.72,17.66,4.6-17.32c.13-.64,2.06-1.63,2.38-1.3Z"/>
  <path class="cls-3" d="M26.75,48.86l.02,23.55-2.75,1.28c-.45-.35-.65-.48-.66-1.08-.04-2.05.84-5.15.92-7.26.11-3.08.09-6.51,0-9.59s-2.38-6.61,2.47-6.9Z"/>
  <text class="cls-2" transform="translate(2.55 223.26) scale(.89 1.55)"><tspan x="0" y="0">LA FIRMA DE LA SIERRA</tspan></text>
  <text/>
</svg>