<?xml version="1.0" encoding="UTF-8"?>
<svg id="Capa_1" data-name="Capa 1" xmlns="http://www.w3.org/2000/svg" xmlns:xlink="http://www.w3.org/1999/xlink" viewBox="0 0 3632.42 792.47">
  <defs>
    <style>
      .cls-1 {
        fill: url(#linear-gradient-2);
      }

      .cls-2 {
        fill: url(#linear-gradient-10);
      }

      .cls-3 {
        fill: url(#linear-gradient-12);
      }

      .cls-4 {
        fill: url(#linear-gradient-4);
      }

      .cls-5 {
        fill: url(#linear-gradient-3);
      }

      .cls-6 {
        fill: url(#linear-gradient-5);
      }

      .cls-7 {
        fill: url(#linear-gradient-8);
      }

      .cls-8 {
        fill: url(#linear-gradient-7);
      }

      .cls-9 {
        fill: url(#linear-gradient-9);
      }

      .cls-10 {
        fill: url(#linear-gradient-11);
      }

      .cls-11 {
        fill: url(#linear-gradient-6);
      }

      .cls-12 {
        fill: url(#linear-gradient);
      }
    </style>
    <linearGradient id="linear-gradient" x1="1701.92" y1="419.62" x2="2434.17" y2="419.62" gradientUnits="userSpaceOnUse">
      <stop offset="0" stop-color="#ffef6d"/>
      <stop offset="0" stop-color="#fee468"/>
      <stop offset=".28" stop-color="#c49222"/>
      <stop offset=".63" stop-color="#d2a033"/>
      <stop offset="1" stop-color="#c49a27"/>
    </linearGradient>
    <linearGradient id="linear-gradient-2" x1="2321.82" y1="391.37" x2="2790.63" y2="391.37" xlink:href="#linear-gradient"/>
    <linearGradient id="linear-gradient-3" x1="407.53" y1="391.08" x2="876.36" y2="391.08" xlink:href="#linear-gradient"/>
    <linearGradient id="linear-gradient-4" x1="3173.71" y1="411.74" x2="3632.42" y2="411.74" xlink:href="#linear-gradient"/>
    <linearGradient id="linear-gradient-5" x1="0" y1="389.49" x2="404.02" y2="389.49" xlink:href="#linear-gradient"/>
    <linearGradient id="linear-gradient-6" x1="1237.54" y1="399.66" x2="1550.04" y2="399.66" xlink:href="#linear-gradient"/>
    <linearGradient id="linear-gradient-7" x1="897.63" y1="400.35" x2="1174.02" y2="400.35" xlink:href="#linear-gradient"/>
    <linearGradient id="linear-gradient-8" x1="2815.78" y1="404.86" x2="3140.02" y2="404.86" xlink:href="#linear-gradient"/>
    <linearGradient id="linear-gradient-9" x1="1388.48" y1="54.57" x2="1500.08" y2="54.57" xlink:href="#linear-gradient"/>
    <linearGradient id="linear-gradient-10" x1="3444.1" y1="75.6" x2="3507.53" y2="75.6" xlink:href="#linear-gradient"/>
    <linearGradient id="linear-gradient-11" x1="3314.09" y1="75.75" x2="3375.59" y2="75.75" xlink:href="#linear-gradient"/>
    <linearGradient id="linear-gradient-12" x1="1860.02" y1="253.86" x2="1864.18" y2="253.86" xlink:href="#linear-gradient"/>
  </defs>
  <path class="cls-12" d="M2434.02,773.86c-.2,3.3,1.2,8.7-1.9,11-2.2,1.7-24.8,6.5-29.1,6.9-119,11.2-176-113.3-184.7-213.2-9.1-108.9-20.1-217.6-26.3-326.7-6.6,8.3-10.8,20.2-14.9,30.1-46.2,109.4-101.9,233.1-139.6,344.4-1.9,5.8-8.8,37.1-10.7,37.7-3.3.9-11.3.5-12.4-3.5l-148.2-399.5-6.2-1.2-32.1,351.1c1.4,13.6,6.5,25.3,20.4,29.5,10.6,3.2,23.1-1.5,19.6,13.4l-130,2c-3.5-18,7.8-11.6,20-15,18-5,26.5-19.5,31.5-36.5l46.3-411.4c-13.1-37.6-30.2-76.6-60.8-103.2-18.9-16.5-47.3-32.5-73-26v-14c26.2-3.5,46.7-5.3,72.4,2.6,84.8,26,116.2,133,145.1,206.9,36.8,94.3,72.8,190,106.6,285.4,1.7,4.9,2.6,10.1,3.9,15.1l181.8-442.8,14.2-1.2,38,385c8.6,76.6,15,183.8,74,240,12.9,12.3,45.3,33,63,33h33l.1.1ZM1864.02,249.86h-4v8c4-1.1,4.5-4.3,4-8h0Z"/>
  <path class="cls-1" d="M2565.82,126.16l167.9,477.1c5.9,13.1,18.6,30.5,32.4,35.6,11.4,4.2,27.9-.5,23.9,15l-147.1.2c-4.7-15.9,6.7-10.6,16.8-13.5,12.7-3.6,15.6-13.4,16.4-25.6-10.7-42.8-27-84.2-38.2-126.9l-176.6-.3-41.2,121.1c-1.4,14,1.3,27.2,16,32.1,6,2,23.8.4,15.2,13.1-3.6,5.3-112.3.5-127.2,1-7.9-16.3,6.3-11.2,16.1-14.1,23.9-7,32.6-24.6,42.3-45.7l173.4-468.2,9.9-.9h0ZM2472.02,459.86h156l-75-236-81,236Z"/>
  <path class="cls-5" d="M651.82,126.06l167.9,479.1c7.8,16,20,31.5,38.2,35.8,10.7,2.5,20.4-3.7,18.1,12.9h-147.1c-5.1-16.4,8.3-10,18.3-13.8,13.2-5.1,14.1-19,12.9-31.2l-38.3-120.7-174.5-.4-41.3,121.1c-1.1,13.9-.3,26.2,14.6,31.5,6.6,2.3,25.2.9,16.6,13.7-4.4,6.5-110-2.6-125.8,1.7-11.8-16.1,6-12.3,16.4-15.2,17.4-4.8,27.9-19,35.8-34.2l176.9-477.1c1.9-4.4,7.4-3.8,11.5-3.1h0l-.2-.1ZM712.02,459.86l-74-236-80,236h154Z"/>
  <path class="cls-4" d="M3314.02,155.86c-.4,2.3.6,9.3,0,10-.8.8-17.7,1.6-22,3-16.9,5.5-22.4,24.3-23.9,40.1,3.7,88.8-5,181.7-.1,270,5.2,93.8,52.8,166.3,155.2,159,84.2-6,122.4-76,127-153,5.7-94.6-4.3-194.8-.2-290-4.3-13.5-9.9-21.9-23.8-26.1-10.7-3.2-21.3,1.3-18-13h124c-.4,2.3.6,9.3,0,10-.7.7-16.6,1.4-20.4,2.6-9.1,2.6-16.1,9.7-19.9,18.1s-5.2,26-5.7,36.3c-5.7,104.1,23.4,289.7-33.9,374.1-62.7,92.5-227.1,93.9-294,5.9-72.7-95.6-26.7-288.8-40.2-403.8-1.7-12.2-11.9-26.3-23.8-30.2-10.6-3.5-23.6,2.1-20-13h140-.3Z"/>
  <path class="cls-6" d="M379.52,162.36c5.6,38.2,9,76.9,10.5,115.5-2.7-.4-7.8.9-9.7-.3-1.2-.8-5.2-23.2-6.9-28.1-24.4-73.9-85.2-115.4-163.9-107C-4.08,165.06,1.82,649.56,237.02,637.86c96.2-4.8,136.8-83.2,152.4-167.6.8-4.3,1.8-21.6,2.6-22.4.6-.6,9.5.4,12,0-4,27.8-1.9,57.3-4,85-5.6,72-89.1,128.5-156.9,133.1C33.22,680.06-33.38,452.56,15.02,283.86,63.72,114.06,238.22,64.06,379.52,162.36Z"/>
  <path class="cls-11" d="M1514.02,143.86v94c-2.3-.4-9.3.6-10,0-1.6-1.6-.5-29.8-12.4-42.6-3.1-3.3-14.9-11.3-18.7-11.3h-137v220h105c11,0,25.9-12.5,28.5-23.5.9-3.7,1.2-21.1,2.6-22.4,1-1,9.2.4,11.9-.1v117c0,2.9-10.9,4-12,3-1.3-1.2,1.5-21.7-7.1-33.9-5.1-7.2-19.5-14.1-27.9-14.1h-101v198h113c3.2,0,23.5-6.5,27.7-8.3,34.5-14.7,50.9-50.7,62.5-83.9h10.8c.3,3,0,5.8-.5,8.6-3.8,25.5-19.1,79.2-28,104-1,2.8-1.5,6.1-4.8,7.2l-277.8-1.5c-6.1-14.9,10.9-10.6,21.7-14.5,17-6.3,24.8-23.2,25.5-40.5V208.86c-1.9-17.3-9.2-33.5-26.6-39.5-10.6-3.6-22.8,1.4-19.4-13.6h209.1c22.1-1.7,43.5-6.8,64.9-12h0v.1Z"/>
  <path class="cls-8" d="M1174.02,143.86v94c-16.5,3.7-10.7-12.7-12.9-24.1-1.1-5.8-5-14.1-9.1-18.3-2.7-2.8-18.2-11.6-21-11.6h-135v220h103c2,0,13.2-4.8,15.7-6.3,18.3-11.4,13.7-38,15.3-39.7.6-.6,9.5.4,12,0v117c0,2.9-10.9,4-12,3-1.2-1.1,1.2-21.7-5.1-31.9-4.3-6.9-20.3-16.1-27.9-16.1h-101v177c0,2.5,5.8,15.4,7.6,18.4,12.3,19.8,37.7,15.9,40.2,18.8,1.2,1.4.5,9.4-1.7,10.9-6.8,4.8-124.5-1.3-142.2,0-8.3-16.2,7.8-11,18.2-14.1,19.3-5.7,26.7-23.5,28-42,9-124.7-6.9-260.2-.1-386-1.3-17.6-8.5-39.2-27.9-44.1-10.6-2.7-20.3,3.7-18.1-12.9h211.1c21.5-1.8,42.1-6.9,62.9-12h0Z"/>
  <path class="cls-7" d="M2962.02,155.86c-.4,2.3.6,9.3,0,10-.8.8-16.3,1.6-21.4,3.6-12.3,4.8-26.6,24.2-26.6,37.4v421h119c4.3,0,18.6-4.7,23.5-6.5,39.7-14.7,58.3-51.7,70.7-89.7l12.8,1.2-34.4,120.6-289.6.4c.4-2.2-.6-9.3,0-10,.8-.8,17-2.2,22.6-4.4,18.7-7.5,24.1-23.5,25.5-42.5,9-124-6.9-258.9-.1-384-1.2-16.3-9.9-37.5-26.5-43.5-4.3-1.6-20.6-2.9-21.4-3.6-.9-.9.3-7.5-.1-9.9h146v-.1Z"/>
  <path class="cls-9" d="M1471.42.16c9.8-2.5,27.8,24.7,28.6,32.9.9,10.1-9.7,16.1-16.6,21.2-19.1,14.3-44.4,30.2-64.8,43.2-4.3,2.7-19.1,13.2-22.6,11.5-2.2-1.1-9.4-8.2-7.1-11,13.5-12.5,71.5-95,82.5-97.8Z"/>
  <path class="cls-2" d="M3497.32,101.16c-34,32-75.4-27.5-39.2-54.2,32.4-23.9,67.1,27.9,39.2,54.2Z"/>
  <path class="cls-10" d="M3337.52,42.36c45.1-9.4,51.7,63.2,11.3,67.4-41.5,4.4-46.5-60.1-11.3-67.4Z"/>
  <path class="cls-3" d="M1864.02,249.86c.5,3.7,0,6.9-4,8v-8h4Z"/>
</svg>