<?xml version="1.0" encoding="UTF-8"?>
<svg id="logo-completo" xmlns="http://www.w3.org/2000/svg" version="1.1" viewBox="0 0 725.2 280">
  <!-- Generator: Adobe Illustrator 29.4.0, SVG Export Plug-In . SVG Version: 2.1.0 Build 152)  -->
  <defs>
    <style>
      .st0, .st1, .st2 {
        isolation: isolate;
      }

      .st3 {
        stroke: #cabe75;
        stroke-miterlimit: 10;
        stroke-width: 4px;
      }

      .st3, .st1, .st2 {
        fill: #cabe75;
      }

      .st1 {
        font-family: PlayfairDisplay-ExtraBold, 'Playfair Display';
        font-size: 35.7px;
        font-weight: 700;
        letter-spacing: .2em;
      }

      .st2 {
        font-family: Papyrus-Regular, Papyrus;
        font-size: 18px;
        letter-spacing: .2em;
      }
    </style>
  </defs>
  <g id="isotipo">
    <path class="st3" d="M210.9,121.2c-1.9-1.8-5.4-5-8-6.3-1.7-.9-5.1,1.3-6.5,2.2-7.5,4.3-13.6,10.2-20.7,14.7-2.4,1.5-4.1,1.9-6.6,3-3.9,1.7-9.2,8.1-13.4,8.4-3.1.2-4.9-1.6-7.1-3-5.3-3.5-7.4-6.3-14.5-2.5-4.6,2.5-8.8,6.2-13.1,9.1-13.7,9.2-30.2,18-48.6,19.5-.5,0-3,.2-3.2.1-.4-.3-.2-1.2-.3-1.6,14.1-.5,27.2-5.5,38.5-11.8,8.5-4.7,15.2-10.4,23.2-15.3,5.8-3.6,9.4-4.9,15.9-1.1,1.6.9,6.9,5.2,8.2,5.3,2.7,0,6.7-4.1,8.5-5.5,3.6-2.7,7.6-3.7,11.4-6.1,6-3.9,11.3-8.7,17.4-12.6,2.3-1.5,7.1-4.8,10.2-4.4,3.7.4,8.8,6.1,11.9,7.9,2.4,1.4,4.2,1.6,6.8,2.4,3.9,1.3,7.4,5,10.3,7.4,2.4,2,7.1,6.5,10,7.5.5.7,1.8,1.4,2.8,1.6,8.7,1.7,9.4-7.4,18.8-5.3,4.2.9,13,9.2,16.8,11.9,12.1,8.7,26.5,15,42.5,17.8l9.5.7c1.4,1.5-.3,1.5-1.9,1.5-19.3-.9-37.8-8.8-51.8-18.9-3.9-2.9-7.5-6.6-11.5-9.3-6.5-4.3-9.6-2.2-14.7,1.8-13.7,10.9-33.2,29.1-55.2,26.5-.6,0-1.4-.3-1.2-.9.3-.9,1.8-.4,2.6-.3,16.1.2,28.1-7.6,39.2-15.7,2.1-1.5,8.2-5.9,9.5-7.5,1.1-1.3-1.5-.7-2.7-.9-2.3-.3-3.9-1.1-5.7-2.2-3.2-2.1-6.2-5.7-9.6-7.4-.8-1.5-6.2-5.8-8.2-6.6-1.6-.6-3.2-.6-4.9-1.3-1.9-.8-3-2-4.9-2.7h.1Z"/>
    <path class="st3" d="M178.4,162.1c0-.2,2.9-1.7,3.4-2.1,5.2-3.9,5-6.5,7.5-11.3,1.5-2.9,4.6-6.3,7.6-8.2.6-.4,3-2,3.7-1.5,1.1.8-3.5,3.2-4.2,3.9-4.7,4-4.3,8.8-7.6,13.2-1.4,1.9-6.4,6.2-9,6.9-.8.2-1.8,0-1.4-.7h0Z"/>
  </g>
  <g class="st0">
    <text class="st1" transform="translate(350.2 139) scale(1.2 1)"><tspan x="0" y="0">O R I G E N</tspan></text>
  </g>
  <g class="st0">
    <text class="st2" transform="translate(351.8 164) scale(.9 1)"><tspan x="0" y="0" xml:space="preserve">S I E R R A   N E V A D A</tspan></text>
  </g>
</svg>