<?xml version="1.0" encoding="UTF-8"?>
<svg id="logo-completo" xmlns="http://www.w3.org/2000/svg" version="1.1" viewBox="0 0 725.2 280">
  <!-- Generator: Adobe Illustrator 29.4.0, SVG Export Plug-In . SVG Version: 2.1.0 Build 152)  -->
  <defs>
    <style>
      .st0 {
        font-family: Papyrus-Regular, Papyrus;
        font-size: 18px;
        letter-spacing: .2em;
      }

      .st0, .st1 {
        isolation: isolate;
      }

      .st0, .st1, .st2 {
        fill: #cabe75;
      }

      .st1 {
        font-family: PlayfairDisplay-Black, 'Playfair Display';
        font-size: 48px;
        font-weight: 800;
        letter-spacing: .2em;
      }

      .st2 {
        stroke: #cabe75;
        stroke-miterlimit: 10;
        stroke-width: 4px;
      }
    </style>
  </defs>
  <g id="isotipo">
    <path class="st2" d="M390.7,30.1c-5.2-6.4-14.9-17.6-21.8-22.1-4.7-3-13.9,4.7-17.9,7.6-20.6,14.9-37.1,35.6-56.7,51.3-6.6,5.3-11.3,6.5-18.1,10.4-10.7,6.1-25.3,28.4-36.6,29.4-8.4.8-13.5-5.5-19.5-10.6-14.4-12.1-20.3-22.1-39.6-8.8-12.5,8.6-24.1,21.8-35.8,31.8-37.4,32.1-82.7,62.7-133.1,67.9-1.3.1-8.2.8-8.7.4-1.2-.9-.6-4.2-.7-5.7,38.7-1.8,74.5-19.2,105.5-41.1,23.4-16.5,41.7-36.3,63.6-53.4,15.9-12.4,25.8-17,43.4-3.7,4.4,3.3,18.8,18.3,22.5,18.4,7.3.3,18.3-14.4,23.2-19.2,9.9-9.4,20.8-12.9,31.2-21.3,16.5-13.5,31-30.3,47.6-43.9,6.4-5.2,19.5-16.6,28-15.3,10,1.5,24,21.2,32.5,27.6,6.5,5,11.5,5.5,18.5,8.5,10.7,4.7,20.2,17.3,28.3,25.7,6.7,6.9,19.3,22.6,27.4,26.2,1.3,2.3,4.8,4.8,7.6,5.5,23.7,6.1,25.6-25.9,51.6-18.6,11.6,3.2,35.7,32.1,46.1,41.7,33,30.2,72.5,52.2,116.3,62.2l26.1,2.4c3.8,5.2-.7,5.4-5.1,5.1-52.8-3.2-103.6-30.6-141.8-66-10.8-10-20.5-22.9-31.5-32.3-17.7-15.1-26.2-7.7-40.2,6.4-37.6,37.9-90.8,101.7-151.1,92.6-1.6-.2-3.9-1.1-3.3-3.2.9-3.3,4.9-1.3,7-1.2,44.1.7,76.8-26.4,107.3-54.8,5.8-5.4,22.5-20.7,26.1-26.3,2.9-4.6-4.2-2.6-7.4-3-6.4-1-10.6-3.7-15.5-7.8-8.8-7.5-17.1-20-26.2-25.9-2.1-5.2-17.1-20.4-22.5-22.9-4.4-2-8.8-2-13.5-4.5-5.2-2.7-8.2-7-13.5-9.4h0Z"/>
    <path class="st2" d="M301.5,172.7c.2-.6,8-6.1,9.4-7.5,14.1-13.6,13.7-22.8,20.5-39.5,4-10,12.5-21.9,20.8-28.7,1.6-1.3,8.3-7.1,10.1-5.3,2.9,2.9-9.6,11.2-11.6,13.5-12.9,14-11.7,30.6-20.8,46-3.9,6.6-17.6,21.5-24.6,24.1-2.1.8-4.8,0-3.7-2.6h0Z"/>
  </g>
  <text class="st1" transform="translate(60 235)"><tspan x="0" y="0">O R I G E N</tspan></text>
  <text class="st0" transform="translate(60 265)"><tspan x="0" y="0">S I E R R A N E V A D A</tspan></text>
</svg>